<?xml version="1.0" encoding="UTF-8" standalone="no"?>
<!-- Created with Inkscape (http://www.inkscape.org/) -->

<svg
   xmlns:dc="http://purl.org/dc/elements/1.1/"
   xmlns:cc="http://creativecommons.org/ns#"
   xmlns:rdf="http://www.w3.org/1999/02/22-rdf-syntax-ns#"
   xmlns:svg="http://www.w3.org/2000/svg"
   xmlns="http://www.w3.org/2000/svg"
   xmlns:sodipodi="http://sodipodi.sourceforge.net/DTD/sodipodi-0.dtd"
   xmlns:inkscape="http://www.inkscape.org/namespaces/inkscape"
   width="210mm"
   height="297mm"
   viewBox="0 0 210 297"
   version="1.1"
   id="svg8"
   inkscape:version="0.92.0 r15299"
   sodipodi:docname="Flat Nature Art.svg">
  <defs
     id="defs2" />
  <sodipodi:namedview
     id="base"
     pagecolor="#ffffff"
     bordercolor="#666666"
     borderopacity="1.0"
     inkscape:pageopacity="0.0"
     inkscape:pageshadow="2"
     inkscape:zoom="0.7"
     inkscape:cx="-6288.7578"
     inkscape:cy="-420.42504"
     inkscape:document-units="px"
     inkscape:current-layer="layer1"
     showgrid="false"
     inkscape:snap-global="false"
     showborder="false"
     inkscape:window-width="1920"
     inkscape:window-height="1017"
     inkscape:window-x="-8"
     inkscape:window-y="-8"
     inkscape:window-maximized="1" />
  <metadata
     id="metadata5">
    <rdf:RDF>
      <cc:Work
         rdf:about="">
        <dc:format>image/svg+xml</dc:format>
        <dc:type
           rdf:resource="http://purl.org/dc/dcmitype/StillImage" />
        <dc:title></dc:title>
      </cc:Work>
    </rdf:RDF>
  </metadata>
  <g
     inkscape:label="Layer 1"
     inkscape:groupmode="layer"
     id="layer1">
    <g
       id="g4965"
       transform="matrix(1,0,0,0.99999896,0,5.1809879e-4)"
       inkscape:export-xdpi="96"
       inkscape:export-ydpi="96">
      <rect
         y="309.62482"
         x="-1859.1268"
         height="190.5"
         width="338.66666"
         id="rect4622"
         style="fill:#d5f6ff;fill-opacity:1;stroke:none;stroke-width:0.09374758" />
      <path
         sodipodi:nodetypes="cccssssscccccscccc"
         inkscape:connector-curvature="0"
         id="path4813"
         transform="scale(0.26458333)"
         d="m -6271.4294,1393.9476 c -82.2334,4.566 -33.8594,173.9591 -91.428,232.858 -35.3889,36.2064 -65.2563,27.2814 -115.7149,31.4288 -50.6834,4.1658 -56.5702,10.1009 -98.5706,-18.5723 -62.1162,-42.4061 -42.1193,-183.8817 -117.1426,-178.5703 -52.1488,3.692 -23.4401,167.9161 -75.7136,167.1426 -71.8213,-1.0628 -18.1853,-242.8889 -90.0009,-244.2852 -84.5329,-1.6435 -33.3063,174.418 -90,237.1426 -16.4823,18.2356 -50.4241,33.3584 -76.6211,43.293 v 225.8515 h 1280 v -270.3965 c -7.4586,-3.4544 -14.0805,-7.3153 -19.0937,-11.6054 -48.8682,-41.8194 -25.6918,-137.3366 -89.999,-138.5726 -61.8292,-1.1884 -51.4542,105.6639 -98.5724,145.7155 -32.4866,27.6141 -68.8156,25.7185 -111.4286,27.1422 -38.7024,1.2931 -48.59,10.4451 -77.1421,-15.7145 -97.4837,-71.335 -35.8169,-237.8732 -128.5725,-232.8574 z"
         style="fill:#84c9bb;fill-opacity:1;stroke:none;stroke-width:0.99999994px;stroke-linecap:butt;stroke-linejoin:miter;stroke-opacity:1" />
      <path
         sodipodi:nodetypes="accccaaa"
         inkscape:connector-curvature="0"
         id="path4808"
         transform="scale(0.26458333)"
         d="m -6518.5703,1671.0918 c -123.5425,2.8884 -358.5733,48.5705 -367.1445,51.4277 l -25.5664,167.7168 h 1164.6601 V 1717.623 c 0,0 -83.3317,-35.2802 -127.6641,-40.8183 -116.4556,-14.5479 -234.0834,23.279 -351.4296,21.4297 -98.0247,-1.5448 -194.8454,-29.434 -292.8555,-27.1426 z"
         style="fill:#61a597;fill-opacity:1;stroke:none;stroke-width:0.99999994px;stroke-linecap:butt;stroke-linejoin:miter;stroke-opacity:1" />
      <path
         sodipodi:nodetypes="aaaccccaa"
         inkscape:connector-curvature="0"
         id="path4803"
         transform="scale(0.26458333)"
         d="m -6211.4277,1658.9102 c -118.8155,-3.7101 -231.665,63.7763 -350.5235,65.6601 -123.3263,1.9546 -243.1906,-71.0791 -365.6758,-56.5683 -35.4194,4.1961 -98.9941,40.6132 -98.9941,40.6132 v 181.6211 h 1280 v -197.6718 c 0,0 -127.7043,37.2636 -193.0762,35.0371 -93.372,-3.1801 -178.3498,-65.7755 -271.7304,-68.6914 z"
         style="fill:#3a9280;fill-opacity:1;stroke:none;stroke-width:0.99999994px;stroke-linecap:butt;stroke-linejoin:miter;stroke-opacity:1" />
      <path
         sodipodi:nodetypes="cacc"
         inkscape:connector-curvature="0"
         id="path4797"
         d="m -1598.0169,465.44078 c 0,0 -0.4386,-3.63538 0.8651,-3.88957 1.5307,-0.29847 2.6572,3.85106 2.6572,3.85106 z"
         style="fill:#c8beb7;fill-opacity:1;stroke:none;stroke-width:0.10782952px;stroke-linecap:butt;stroke-linejoin:miter;stroke-opacity:1" />
      <path
         style="fill:#cbccc8;fill-opacity:1;stroke:none;stroke-width:0.26458332px;stroke-linecap:butt;stroke-linejoin:miter;stroke-opacity:1"
         d="m -1613.0134,465.208 c 0,0 -1.5487,-2.5701 -0.9449,-3.68527 1.7264,-3.18828 6.6905,-3.84028 10.2998,-3.49629 2.0924,0.19942 4.6242,1.19886 5.4807,3.11833 0.6042,1.35405 -0.945,4.34671 -0.945,4.34671 z"
         id="path4790"
         inkscape:connector-curvature="0"
         sodipodi:nodetypes="caaacc" />
      <path
         style="fill:#6c5d53;fill-opacity:1;stroke:none;stroke-width:0.10782952px;stroke-linecap:butt;stroke-linejoin:miter;stroke-opacity:1"
         d="m -1598.0442,465.5497 c 0,0 -0.3168,-3.65513 1.0013,-3.88956 1.5355,-0.2731 2.6572,3.85106 2.6572,3.85106 z"
         id="path4799"
         inkscape:connector-curvature="0"
         sodipodi:nodetypes="cacc" />
      <path
         sodipodi:nodetypes="caaacc"
         inkscape:connector-curvature="0"
         id="path4788"
         d="m -1613.0134,465.48288 c 0,0 -1.5487,-2.5701 -0.9449,-3.68527 1.7264,-3.18828 6.6905,-3.84028 10.2998,-3.49629 2.0924,0.19942 4.6242,1.19886 5.4807,3.11833 0.6042,1.35405 -0.945,4.34671 -0.945,4.34671 z"
         style="fill:#6c5d53;fill-opacity:1;stroke:none;stroke-width:0.26458332px;stroke-linecap:butt;stroke-linejoin:miter;stroke-opacity:1" />
      <path
         inkscape:connector-curvature="0"
         style="fill:#917c6f;fill-opacity:1;stroke:none;stroke-width:0.10782952"
         d="m -1596.9003,461.64705 c -0.047,2.1e-4 -0.095,0.005 -0.1426,0.013 -1.0965,0.19504 -1.0612,2.73242 -1.0184,3.58829 a 2.2721221,3.2926514 56.129182 0 0 1.1934,-0.57368 2.2721221,3.2926514 56.129182 0 0 1.4823,-1.67264 c -0.4124,-0.74084 -0.9308,-1.35757 -1.5147,-1.35502 z"
         id="path4801" />
      <path
         style="fill:#c8beb7;fill-opacity:1;stroke:none;stroke-width:0.26458332px;stroke-linecap:butt;stroke-linejoin:miter;stroke-opacity:1"
         d="m -1803.9344,465.28243 c 0,0 -1.0761,-8.92019 2.1227,-9.54389 3.7561,-0.73237 6.5201,9.44941 6.5201,9.44941 z"
         id="path4763"
         inkscape:connector-curvature="0"
         sodipodi:nodetypes="cacc" />
      <path
         style="fill:#77e22f;fill-opacity:1;stroke:none;stroke-width:0.25374907px;stroke-linecap:butt;stroke-linejoin:miter;stroke-opacity:1"
         d="m -1694.7593,466.31526 c -0.2668,-2.96745 -0.4424,-10.68884 6.4581,-11.02571 3.9905,-0.0911 5.9601,4.00433 7.313,4.3238 0.7803,-0.87238 2.0426,-1.52836 3.5139,-1.34037 2.1879,0.27957 2.198,2.05805 2.1843,2.94019 1.128,-0.61597 3.7166,-2.35558 6.0782,-1.98896 5.1286,0.79618 4.6538,7.09105 4.6538,7.09105 z"
         id="path4739"
         inkscape:connector-curvature="0"
         sodipodi:nodetypes="cccacacc" />
      <path
         sodipodi:nodetypes="cccacacc"
         inkscape:connector-curvature="0"
         id="path4745"
         d="m -1645.462,466.31526 c 0.1877,-4.58572 0.3112,-16.51788 -4.5436,-17.03846 -2.8075,-0.14079 -4.1932,6.18805 -5.145,6.68174 -0.549,-1.34812 -1.4371,-2.36183 -2.4722,-2.07132 -1.5393,0.43203 -1.5464,3.18037 -1.5368,4.54359 -0.7936,-0.95189 -2.6148,-3.64017 -4.2763,-3.07362 -3.6082,1.23037 -3.2741,10.95807 -3.2741,10.95807 z"
         style="fill:#77e22f;fill-opacity:1;stroke:none;stroke-width:0.26458332px;stroke-linecap:butt;stroke-linejoin:miter;stroke-opacity:1" />
      <path
         sodipodi:nodetypes="csccacacc"
         inkscape:connector-curvature="0"
         id="path4741"
         d="m -1694.7627,466.22077 c 0.1768,-1.09023 -1.0199,-3.93075 1.0715,-5.55944 0.9577,-0.74577 4.0102,-1.20894 6.1117,-1.27544 3.8692,-0.0573 5.779,2.51662 7.0908,2.7174 0.7566,-0.54827 1.9806,-0.96053 3.4072,-0.84238 2.1214,0.1757 2.1312,1.29342 2.1179,1.84782 1.0937,-0.38712 3.6037,-1.48042 5.8935,-1.25001 4.9728,0.50038 4.5125,4.45654 4.5125,4.45654 z"
         style="fill:#63bb28;fill-opacity:1;stroke:none;stroke-width:0.19808362px;stroke-linecap:butt;stroke-linejoin:miter;stroke-opacity:1" />
      <path
         style="fill:#77e22f;fill-opacity:1;stroke:none;stroke-width:0.22784923px;stroke-linecap:butt;stroke-linejoin:miter;stroke-opacity:1"
         d="m -1754.2391,465.40235 c 0,0 -0.2041,-7.87386 -4.0632,-8.05884 -2.4185,-0.11592 -2.7203,3.95866 -3.4018,4.76523 -0.3525,-0.82562 -1.0333,-2.62738 -2.4569,-2.59285 -3.207,0.0778 -5.0081,6.09668 -5.0081,6.09668 z"
         id="path4735"
         inkscape:connector-curvature="0"
         sodipodi:nodetypes="cacacc" />
      <path
         sodipodi:nodetypes="cccacacc"
         inkscape:connector-curvature="0"
         id="path4729"
         d="m -1849.7056,466.71616 c -0.1877,-4.58572 -0.3112,-16.51788 4.5436,-17.03846 2.8075,-0.14079 4.1932,6.18805 5.145,6.68174 0.549,-1.34812 1.4371,-2.36183 2.4722,-2.07132 1.5393,0.43203 1.5464,3.18037 1.5368,4.54359 0.7936,-0.95189 2.6148,-3.64017 4.2763,-3.07362 3.6082,1.23037 3.2741,10.95807 3.2741,10.95807 z"
         style="fill:#77e22f;fill-opacity:1;stroke:none;stroke-width:0.26458332px;stroke-linecap:butt;stroke-linejoin:miter;stroke-opacity:1" />
      <path
         style="fill:#63bb28;fill-opacity:1;stroke:none;stroke-width:0.2097519px;stroke-linecap:butt;stroke-linejoin:miter;stroke-opacity:1"
         d="m -1849.7056,466.71616 c -0.1287,-1.97681 -1.4085,-6.22036 0.109,-8.73723 0.6949,-1.15247 2.9098,-1.86823 4.4346,-1.97099 2.8075,-0.0885 4.1932,3.88903 5.145,4.1993 0.549,-0.84726 1.4371,-1.48435 2.4722,-1.30177 1.5393,0.27152 1.5464,1.99878 1.5368,2.85552 0.7936,-0.59823 2.6148,-2.28775 4.2763,-1.93169 3.6082,0.77326 3.2741,6.88686 3.2741,6.88686 z"
         id="path4731"
         inkscape:connector-curvature="0"
         sodipodi:nodetypes="csccacacc" />
      <path
         sodipodi:nodetypes="cacacc"
         inkscape:connector-curvature="0"
         id="path4733"
         d="m -1828.9009,464.90391 c 0,0 -0.2041,-1.89373 -4.0632,-1.93823 -2.4185,-0.0279 -2.7203,0.9521 -3.4018,1.14609 -0.3525,-0.19857 -1.0333,-0.63191 -2.4569,-0.62361 -3.207,0.0187 -5.0081,1.46631 -5.0081,1.46631 z"
         style="fill:#2ca02c;fill-opacity:1;stroke:none;stroke-width:0.11174114px;stroke-linecap:butt;stroke-linejoin:miter;stroke-opacity:1" />
      <path
         sodipodi:nodetypes="cacacc"
         inkscape:connector-curvature="0"
         id="path4725"
         d="m -1854.2944,465.40235 c 0,0 0.2041,-7.87386 4.0632,-8.05884 2.4185,-0.11592 2.7203,3.95866 3.4018,4.76523 0.3525,-0.82562 1.0333,-2.62738 2.4569,-2.59285 3.207,0.0778 5.0081,6.09668 5.0081,6.09668 z"
         style="fill:#77e22f;fill-opacity:1;stroke:none;stroke-width:0.22784923px;stroke-linecap:butt;stroke-linejoin:miter;stroke-opacity:1" />
      <path
         style="fill:#63bb28;fill-opacity:1;stroke:none;stroke-width:0.15766288px;stroke-linecap:butt;stroke-linejoin:miter;stroke-opacity:1"
         d="m -1854.2944,465.51191 c 0,0 0.2041,-3.77008 4.0632,-3.85866 2.4185,-0.0555 2.7203,1.89545 3.4018,2.28165 0.3525,-0.39531 1.0333,-1.25802 2.4569,-1.24149 3.207,0.0373 5.0081,2.91916 5.0081,2.91916 z"
         id="path4727"
         inkscape:connector-curvature="0"
         sodipodi:nodetypes="cacacc" />
      <rect
         style="fill:#7c4b2b;fill-opacity:1;stroke:none;stroke-width:0.04030742"
         id="rect4624"
         width="338.66666"
         height="35.216404"
         x="-1859.1268"
         y="464.90842" />
      <path
         sodipodi:nodetypes="cacc"
         inkscape:connector-curvature="0"
         id="path4770"
         d="m -1726.2251,464.98307 c 0,0 -0.6673,-5.53123 1.3162,-5.91798 2.3291,-0.45413 4.043,5.8594 4.043,5.8594 z"
         style="fill:#c8beb7;fill-opacity:1;stroke:none;stroke-width:0.16406293px;stroke-linecap:butt;stroke-linejoin:miter;stroke-opacity:1" />
      <path
         sodipodi:nodetypes="cacc"
         inkscape:connector-curvature="0"
         id="path4761"
         d="m -1804.0012,465.5497 c 0,0 -0.7775,-8.96866 2.4568,-9.54389 3.7677,-0.67011 6.5201,9.44941 6.5201,9.44941 z"
         style="fill:#6c5d53;fill-opacity:1;stroke:none;stroke-width:0.26458332px;stroke-linecap:butt;stroke-linejoin:miter;stroke-opacity:1" />
      <path
         style="fill:#77e22f;fill-opacity:1;stroke:none;stroke-width:0.26458332px;stroke-linecap:butt;stroke-linejoin:miter;stroke-opacity:1"
         d="m -1538.9727,466.71616 c 0.1877,-4.58572 0.3112,-16.51788 -4.5436,-17.03846 -2.8075,-0.14079 -4.1932,6.18805 -5.145,6.68174 -0.549,-1.34812 -1.4371,-2.36183 -2.4722,-2.07132 -1.5393,0.43203 -1.5464,3.18037 -1.5368,4.54359 -0.7936,-0.95189 -2.6148,-3.64017 -4.2763,-3.07362 -3.6082,1.23037 -3.2741,10.95807 -3.2741,10.95807 z"
         id="path4751"
         inkscape:connector-curvature="0"
         sodipodi:nodetypes="cccacacc" />
      <path
         style="fill:#2ca02c;fill-opacity:1;stroke:none;stroke-width:0.10716553px;stroke-linecap:butt;stroke-linejoin:miter;stroke-opacity:1"
         d="m -1665.1881,465.14254 c 0,0 -0.2901,-1.22545 -5.7753,-1.25424 -3.4376,-0.0181 -3.8666,0.61611 -4.8353,0.74164 -0.501,-0.1285 -1.4687,-0.40891 -3.4921,-0.40354 -4.5584,0.0121 -7.1184,0.94886 -7.1184,0.94886 z"
         id="path4743"
         inkscape:connector-curvature="0"
         sodipodi:nodetypes="cacacc" />
      <path
         style="fill:#63bb28;fill-opacity:1;stroke:none;stroke-width:0.2097519px;stroke-linecap:butt;stroke-linejoin:miter;stroke-opacity:1"
         d="m -1645.462,466.31526 c 0.1287,-1.97681 1.4085,-6.22036 -0.109,-8.73723 -0.6949,-1.15247 -2.9098,-1.86823 -4.4346,-1.97099 -2.8075,-0.0885 -4.1932,3.88903 -5.145,4.1993 -0.549,-0.84726 -1.4371,-1.48435 -2.4722,-1.30177 -1.5393,0.27152 -1.5464,1.99878 -1.5368,2.85552 -0.7936,-0.59823 -2.6148,-2.28775 -4.2763,-1.93169 -3.6082,0.77326 -3.2741,6.88686 -3.2741,6.88686 z"
         id="path4747"
         inkscape:connector-curvature="0"
         sodipodi:nodetypes="csccacacc" />
      <path
         sodipodi:nodetypes="cacacc"
         inkscape:connector-curvature="0"
         id="path4737"
         d="m -1754.2391,465.51191 c 0,0 -0.2041,-3.77008 -4.0632,-3.85866 -2.4185,-0.0555 -2.7203,1.89545 -3.4018,2.28165 -0.3525,-0.39531 -1.0333,-1.25802 -2.4569,-1.24149 -3.207,0.0373 -5.0081,2.91916 -5.0081,2.91916 z"
         style="fill:#63bb28;fill-opacity:1;stroke:none;stroke-width:0.15766288px;stroke-linecap:butt;stroke-linejoin:miter;stroke-opacity:1" />
      <path
         sodipodi:nodetypes="csccacacc"
         inkscape:connector-curvature="0"
         id="path4753"
         d="m -1538.9727,466.71616 c 0.1287,-1.97681 1.4085,-6.22036 -0.109,-8.73723 -0.6949,-1.15247 -2.9098,-1.86823 -4.4346,-1.97099 -2.8075,-0.0885 -4.1932,3.88903 -5.145,4.1993 -0.549,-0.84726 -1.4371,-1.48435 -2.4722,-1.30177 -1.5393,0.27152 -1.5464,1.99878 -1.5368,2.85552 -0.7936,-0.59823 -2.6148,-2.28775 -4.2763,-1.93169 -3.6082,0.77326 -3.2741,6.88686 -3.2741,6.88686 z"
         style="fill:#63bb28;fill-opacity:1;stroke:none;stroke-width:0.2097519px;stroke-linecap:butt;stroke-linejoin:miter;stroke-opacity:1" />
      <path
         style="fill:#6c5d53;fill-opacity:1;stroke:none;stroke-width:0.16406293px;stroke-linecap:butt;stroke-linejoin:miter;stroke-opacity:1"
         d="m -1726.2666,465.1488 c 0,0 -0.4821,-5.56129 1.5235,-5.91798 2.3362,-0.41552 4.0429,5.85939 4.0429,5.85939 z"
         id="path4772"
         inkscape:connector-curvature="0"
         sodipodi:nodetypes="cacc" />
      <path
         style="fill:#2ca02c;fill-opacity:1;stroke:none;stroke-width:0.11174114px;stroke-linecap:butt;stroke-linejoin:miter;stroke-opacity:1"
         d="m -1559.7774,464.90391 c 0,0 0.2041,-1.89373 4.0632,-1.93823 2.4185,-0.0279 2.7203,0.9521 3.4018,1.14609 0.3525,-0.19857 1.0333,-0.63191 2.4569,-0.62361 3.207,0.0187 5.0081,1.46631 5.0081,1.46631 z"
         id="path4755"
         inkscape:connector-curvature="0"
         sodipodi:nodetypes="cacacc" />
      <path
         style="fill:#77e22f;fill-opacity:1;stroke:none;stroke-width:0.22784923px;stroke-linecap:butt;stroke-linejoin:miter;stroke-opacity:1"
         d="m -1534.3839,465.40235 c 0,0 -0.2041,-7.87386 -4.0632,-8.05884 -2.4185,-0.11592 -2.7203,3.95866 -3.4018,4.76523 -0.3525,-0.82562 -1.0333,-2.62738 -2.4569,-2.59285 -3.207,0.0778 -5.0081,6.09668 -5.0081,6.09668 z"
         id="path4757"
         inkscape:connector-curvature="0"
         sodipodi:nodetypes="cacacc" />
      <path
         sodipodi:nodetypes="cacacc"
         inkscape:connector-curvature="0"
         id="path4749"
         d="m -1667.4951,464.88099 c 0,0 0.2209,-1.89373 4.3975,-1.93823 2.6175,-0.0279 2.9441,0.9521 3.6817,1.14609 0.3815,-0.19857 1.1183,-0.63191 2.659,-0.62361 3.4709,0.0187 5.4202,1.46631 5.4202,1.46631 z"
         style="fill:#2ca02c;fill-opacity:1;stroke:none;stroke-width:0.11624724px;stroke-linecap:butt;stroke-linejoin:miter;stroke-opacity:1" />
      <path
         sodipodi:nodetypes="cacacc"
         inkscape:connector-curvature="0"
         id="path4759"
         d="m -1534.3839,465.51191 c 0,0 -0.2041,-3.77008 -4.0632,-3.85866 -2.4185,-0.0555 -2.7203,1.89545 -3.4018,2.28165 -0.3525,-0.39531 -1.0333,-1.25802 -2.4569,-1.24149 -3.207,0.0373 -5.0081,2.91916 -5.0081,2.91916 z"
         style="fill:#63bb28;fill-opacity:1;stroke:none;stroke-width:0.15766288px;stroke-linecap:butt;stroke-linejoin:miter;stroke-opacity:1" />
      <path
         inkscape:connector-curvature="0"
         style="fill:#917c6f;fill-opacity:1;stroke:none;stroke-width:0.16406293"
         d="m -1724.5261,459.21091 c -0.072,3.1e-4 -0.1439,0.007 -0.2169,0.0198 -1.6685,0.29674 -1.6147,4.15738 -1.5497,5.45959 a 3.4570405,5.0097789 56.129182 0 0 1.8159,-0.87287 3.4570405,5.0097789 56.129182 0 0 2.2553,-2.5449 c -0.6274,-1.1272 -1.4162,-2.06556 -2.3046,-2.06168 z"
         id="path4774" />
      <path
         style="fill:#c8beb7;fill-opacity:1;stroke:none;stroke-width:0.22874057px;stroke-linecap:butt;stroke-linejoin:miter;stroke-opacity:1"
         d="m -1721.883,465.01223 c 0,0 -0.9304,-7.71178 1.835,-8.251 3.2473,-0.63316 5.6369,8.16932 5.6369,8.16932 z"
         id="path4776"
         inkscape:connector-curvature="0"
         sodipodi:nodetypes="cacc" />
      <path
         sodipodi:nodetypes="cacc"
         inkscape:connector-curvature="0"
         id="path4778"
         d="m -1721.9409,465.24329 c 0,0 -0.6722,-7.75369 2.1241,-8.25099 3.2572,-0.57933 5.6367,8.1693 5.6367,8.1693 z"
         style="fill:#6c5d53;fill-opacity:1;stroke:none;stroke-width:0.22874057px;stroke-linecap:butt;stroke-linejoin:miter;stroke-opacity:1" />
      <path
         id="path4780"
         d="m -1719.5143,456.96454 c -0.1003,4.3e-4 -0.2006,0.01 -0.3024,0.0276 -2.3262,0.41373 -2.2512,5.79632 -2.1606,7.6119 a 4.8198909,6.9847569 56.129182 0 0 2.5318,-1.21698 4.8198909,6.9847569 56.129182 0 0 3.1444,-3.54816 c -0.8748,-1.57157 -1.9745,-2.87986 -3.2132,-2.87445 z"
         style="fill:#917c6f;fill-opacity:1;stroke:none;stroke-width:0.22874057"
         inkscape:connector-curvature="0" />
      <path
         sodipodi:nodetypes="cacc"
         inkscape:connector-curvature="0"
         id="path4782"
         d="m -1715.7613,465.04876 c 0,0 -0.5143,-4.26231 1.0142,-4.56034 1.7948,-0.34995 3.1155,4.5152 3.1155,4.5152 z"
         style="fill:#c8beb7;fill-opacity:1;stroke:none;stroke-width:0.12642524px;stroke-linecap:butt;stroke-linejoin:miter;stroke-opacity:1" />
      <path
         style="fill:#6c5d53;fill-opacity:1;stroke:none;stroke-width:0.12642524px;stroke-linecap:butt;stroke-linejoin:miter;stroke-opacity:1"
         d="m -1715.7933,465.17647 c 0,0 -0.3716,-4.28548 1.174,-4.56033 1.8002,-0.3202 3.1154,4.51518 3.1154,4.51518 z"
         id="path4784"
         inkscape:connector-curvature="0"
         sodipodi:nodetypes="cacc" />
      <path
         inkscape:connector-curvature="0"
         style="fill:#917c6f;fill-opacity:1;stroke:none;stroke-width:0.12642524"
         d="m -1714.4521,460.60079 c -0.056,2.4e-4 -0.1109,0.006 -0.1672,0.0153 -1.2857,0.22867 -1.2442,3.20363 -1.1942,4.20711 a 2.6639606,3.8604851 56.129182 0 0 1.3994,-0.67263 2.6639606,3.8604851 56.129182 0 0 1.7379,-1.96107 c -0.4835,-0.86861 -1.0913,-1.59171 -1.7759,-1.58872 z"
         id="path4786" />
      <path
         id="path4765"
         transform="scale(0.26458333)"
         d="m -6807.6641,1723.3652 c -0.4373,0 -0.8772,0.042 -1.3222,0.1211 -10.1696,1.8087 -9.8417,25.3401 -9.4453,33.2774 a 21.071428,30.535713 56.129182 0 0 11.0683,-5.3203 21.071428,30.535713 56.129182 0 0 13.7461,-15.5118 c -3.8241,-6.8705 -8.6317,-12.59 -14.0469,-12.5664 z"
         style="fill:#917c6f;fill-opacity:1;stroke:none;stroke-width:0.99999994"
         inkscape:connector-curvature="0" />
      <path
         id="path4665"
         d="m -1859.1268,467.45992 v 4.21317 6.69883 c 1.2394,2.67751 3.1764,4.25385 5.2338,4.25915 2.242,-0.005 4.8623,-1.37216 6.067,-4.45515 1.1273,1.35936 1.9572,1.59395 3.3593,1.59847 2.2788,-0.005 5.2286,-1.70129 6.4225,-4.86608 3.3404,2.83551 7.9291,4.28974 13.7163,4.29506 7.81,-0.005 15.5429,-3.25623 17.8626,-7.73073 l 33.0521,0.10022 c 2.2084,3.2408 7.9757,5.44529 13.6214,5.44564 4.8975,-0.004 9.2388,-1.46278 11.7916,-4.06973 0.8107,2.11465 2.4325,3.26623 3.962,3.26772 1.8128,-0.002 4.5787,-1.86702 5.2535,-4.61022 l 24.8046,0.0668 c 2.6637,2.28545 8.2243,3.73785 14.3242,3.74137 4.5755,-0.002 8.0263,-0.82275 11.0496,-2.25309 0.4366,3.33715 3.1455,5.72385 5.2383,5.72781 1.8,-10e-4 3.889,-1.20706 4.5723,-3.92222 0.8292,1.33353 1.4791,1.51428 2.6438,1.51668 1.8759,-0.003 4.6505,-2.02934 5.2795,-4.91077 l 32.6634,0.0334 c 0.8042,2.15405 3.0065,3.53711 4.5532,3.54104 1.1902,-0.002 1.8958,-0.21569 2.7293,-1.60093 0.7102,2.61514 2.7327,3.73517 4.4868,3.73929 1.7807,-4.6e-4 4.1239,-1.73579 4.82,-4.40801 1.5168,0.66749 2.7957,0.83683 4.8083,0.46612 1.5383,-0.28834 2.9767,-0.87453 4.0995,-1.67069 l 0.5966,0.0334 c 0.5253,3.59695 4.2666,5.56502 8.1331,4.47432 1.6938,-0.48204 3.2623,-1.51421 4.4235,-2.91092 2.9702,1.20152 6.9461,1.87479 11.0867,1.87741 5.8423,-0.003 11.2135,-1.33555 13.9997,-3.47422 h 28.8364 c 1.2578,2.72762 5.6651,4.09558 10.3891,3.22461 1.9925,-0.3717 3.2501,-1.11457 4.7401,-2.12545 0.9533,3.54188 3.7133,5.83126 6.0856,5.83634 1.4598,-0.003 2.8685,-0.87615 3.961,-2.45465 v -4.48085 -4.21317 h -24.6218 -27.6614 -65.3417 -33.7711 -43.4154 -24.429 -34.1018 -32.7587 z"
         style="fill:#623b22;fill-opacity:1;stroke:none;stroke-width:0.28278214"
         inkscape:connector-curvature="0"
         sodipodi:nodetypes="ccccccccccccccccccccccccccccccccccccccccccccccccc" />
      <path
         sodipodi:nodetypes="ccccccccccccccccccccccccccccccccccccccccccccccccc"
         inkscape:connector-curvature="0"
         style="fill:#2ca02c;fill-opacity:1;stroke:none;stroke-width:0.28278214"
         d="m -1859.1268,466.60947 v 4.21317 6.69883 c 1.2394,2.67751 3.1764,4.25385 5.2338,4.25915 2.242,-0.005 4.7287,-1.60602 5.9334,-4.68901 1.1273,1.35936 2.0908,1.82781 3.4929,1.83233 2.2788,-0.005 4.9947,-1.80152 6.1886,-4.96631 3.3404,2.83551 8.163,4.38997 13.9502,4.39529 7.81,-0.005 15.2422,-3.18941 17.5619,-7.66391 l 33.6201,0.13363 c 2.2084,3.2408 7.7084,5.34506 13.3541,5.34541 4.8975,-0.004 9.4393,-1.59641 11.9921,-4.20336 0.8107,2.11465 2.232,3.39986 3.7615,3.40135 1.8128,-0.002 4.1778,-1.8002 4.8526,-4.5434 h 25.2055 c 2.6637,2.28545 8.2243,3.73785 14.3242,3.74137 4.5755,-0.002 8.327,-0.82275 11.3503,-2.25309 0.4366,3.33715 2.8448,5.72385 4.9376,5.72781 1.8,-10e-4 3.7554,-1.30729 4.4387,-4.02245 0.8292,1.33353 1.6127,1.61451 2.7774,1.61691 1.8759,-0.003 4.3498,-2.06275 4.9788,-4.94418 l 33.198,0.13363 c 0.8042,2.15405 2.7726,3.47029 4.3193,3.47422 1.1902,-0.002 1.996,-0.38273 2.8295,-1.76797 0.7102,2.61514 2.6325,3.90221 4.3866,3.90633 1.7807,-4.6e-4 3.8566,-1.73579 4.5527,-4.40801 1.5168,0.66749 3.063,0.83683 5.0756,0.46612 1.5383,-0.28834 2.9767,-0.87453 4.0995,-1.67069 h 0.8305 c 0.5253,3.59695 4.0327,5.59843 7.8992,4.50773 1.6938,-0.48204 3.2623,-1.51421 4.4235,-2.91092 2.9702,1.20152 6.9461,1.87479 11.0867,1.87741 5.8423,-0.003 11.2135,-1.33555 13.9997,-3.47422 h 28.8364 c 1.2578,2.72762 5.6651,4.09558 10.3891,3.22461 1.9925,-0.3717 3.4627,-1.11457 4.9527,-2.12545 0.9533,3.54188 3.5007,5.83126 5.873,5.83634 1.4598,-0.003 2.8685,-0.87615 3.961,-2.45465 v -4.48085 -4.21317 h -24.6218 -27.6614 -65.3417 -33.7711 -43.4154 -24.429 -34.1018 -32.7587 z"
         id="path4663" />
      <path
         id="path4626"
         transform="scale(0.26458333)"
         d="m -7026.6211,1757.1348 v 15.9238 25.3184 a 24.831578,40.486268 0 0 0 19.7813,16.0976 24.831578,40.486268 0 0 0 20.9101,-18.7324 24.831578,40.486268 0 0 0 14.7168,7.9355 24.831578,40.486268 0 0 0 21.1172,-19.2754 67.47711,40.486268 0 0 0 54.998,17.1172 67.47711,40.486268 0 0 0 64.3555,-28.4609 h 130.6035 a 53.201367,33.183351 0 0 0 48.9571,20.2031 53.201367,33.183351 0 0 0 45.3242,-15.8867 16.777294,27.354286 0 0 0 14.2168,12.8555 16.777294,27.354286 0 0 0 15.5625,-17.1719 h 98.0429 a 60.272439,25.102134 0 0 0 54.1387,14.1406 60.272439,25.102134 0 0 0 45.1719,-8.5156 16.777294,27.354286 0 0 0 16.3887,21.6484 16.777294,27.354286 0 0 0 15.5136,-16.9707 16.777294,27.354286 0 0 0 11.7598,7.8789 16.777294,27.354286 0 0 0 15.7871,-18.1816 h 130.5234 a 16.777294,27.354286 0 0 0 14.3047,13.1309 16.777294,27.354286 0 0 0 11.9571,-8.1973 16.777294,27.354286 0 0 0 15.3164,16.2793 16.777294,27.354286 0 0 0 15.4394,-16.6602 16.777294,27.354286 79.509151 0 0 20.9512,1.7617 16.777294,27.354286 79.509151 0 0 15.4941,-6.3144 h 3.1387 a 24.158945,29.018334 49.435094 0 0 29.8555,17.0371 24.158945,29.018334 49.435094 0 0 16.7187,-11.0019 60.272439,25.102134 0 0 0 41.9024,7.0957 60.272439,25.102134 0 0 0 52.9121,-13.1309 h 108.9883 a 22.618141,36.877403 79.509151 0 0 39.2656,12.1875 22.618141,36.877403 79.509151 0 0 20.2344,-8.0332 22.618141,36.877403 0 0 0 20.6816,22.0586 22.618141,36.877403 0 0 0 14.9707,-9.2774 v -16.9355 -15.9238 h -93.0586 -104.5469 -246.9609 -127.6387 -164.0898 -92.3301 -128.8887 -123.8125 z"
         style="fill:#77e22f;fill-opacity:1;stroke:none;stroke-width:1.06878293"
         inkscape:connector-curvature="0" />
      <rect
         y="464.90842"
         x="-1859.1268"
         height="1.4068086"
         width="338.66666"
         id="rect4667"
         style="fill:#bdf665;fill-opacity:1;stroke:none;stroke-width:0.00805619" />
      <path
         style="fill:#9c5f37;fill-opacity:1;stroke:none;stroke-width:0.1628985px;stroke-linecap:butt;stroke-linejoin:miter;stroke-opacity:1"
         d="m -1845.1657,489.79477 c -1.0565,-2.6519 2.2653,-6.89787 5.1197,-6.86501 3.6158,0.0416 8.2114,5.78401 6.2833,8.84307 -2.0571,3.26357 -9.9752,1.60574 -11.403,-1.97806 z"
         id="path4671"
         inkscape:connector-curvature="0"
         sodipodi:nodetypes="aaaa" />
      <path
         sodipodi:nodetypes="aaaa"
         inkscape:connector-curvature="0"
         id="path4669"
         d="m -1845.032,490.62999 c -1.0565,-2.6519 2.2653,-6.89787 5.1197,-6.86501 3.6158,0.0416 8.2114,5.78401 6.2833,8.84307 -2.0571,3.26357 -9.9752,1.60574 -11.403,-1.97806 z"
         style="fill:#b56e40;fill-opacity:1;stroke:none;stroke-width:0.1628985px;stroke-linecap:butt;stroke-linejoin:miter;stroke-opacity:1" />
      <path
         style="fill:#9c5f37;fill-opacity:1;stroke:none;stroke-width:0.13239738px;stroke-linecap:butt;stroke-linejoin:miter;stroke-opacity:1"
         d="m -1805.0144,488.3496 c -0.1833,-2.56858 3.0088,-3.93647 4.9722,-4.20435 3.0327,-0.41374 8.733,0.30424 8.5407,4.2808 -0.181,3.74386 -5.5024,2.95338 -8.3652,2.6755 -1.8488,-0.17947 -4.9756,-0.33972 -5.1477,-2.75195 z"
         id="path4675"
         inkscape:connector-curvature="0"
         sodipodi:nodetypes="aaaaa" />
      <path
         sodipodi:nodetypes="aaaaa"
         inkscape:connector-curvature="0"
         id="path4673"
         d="m -1805.0144,489.01777 c -0.1833,-2.56858 3.0088,-3.93647 4.9722,-4.20435 3.0327,-0.41374 8.733,0.30424 8.5407,4.2808 -0.181,3.74386 -5.5024,2.95338 -8.3652,2.6755 -1.8488,-0.17947 -4.9756,-0.33972 -5.1477,-2.75195 z"
         style="fill:#b56e40;fill-opacity:1;stroke:none;stroke-width:0.13239738px;stroke-linecap:butt;stroke-linejoin:miter;stroke-opacity:1" />
      <path
         sodipodi:nodetypes="aaaa"
         inkscape:connector-curvature="0"
         id="path4677"
         d="m -1763.4877,479.72265 c 1.0867,-1.85133 5.1408,-1.83916 6.439,-0.12936 1.6443,2.1658 0.3564,7.54485 -2.3497,7.81221 -2.887,0.28528 -5.5578,-5.18084 -4.0893,-7.68285 z"
         style="fill:#9c5f37;fill-opacity:1;stroke:none;stroke-width:0.12250327px;stroke-linecap:butt;stroke-linejoin:miter;stroke-opacity:1" />
      <path
         style="fill:#b56e40;fill-opacity:1;stroke:none;stroke-width:0.12250327px;stroke-linecap:butt;stroke-linejoin:miter;stroke-opacity:1"
         d="m -1763.9218,480.18761 c 1.0867,-1.85134 5.1408,-1.83924 6.4389,-0.12944 1.6444,2.16588 0.3565,7.54492 -2.3496,7.81229 -2.8871,0.28519 -5.5579,-5.18093 -4.0893,-7.68285 z"
         id="path4679"
         inkscape:connector-curvature="0"
         sodipodi:nodetypes="aaaa" />
      <path
         style="fill:#9c5f37;fill-opacity:1;stroke:none;stroke-width:0.09343963px;stroke-linecap:butt;stroke-linejoin:miter;stroke-opacity:1"
         d="m -1695.2757,486.76093 c 0.8289,-1.41211 3.9212,-1.40282 4.9114,-0.0987 1.2542,1.65197 0.2718,5.75485 -1.7923,5.95878 -2.202,0.2176 -4.2392,-3.9517 -3.1191,-5.86011 z"
         id="path4681"
         inkscape:connector-curvature="0"
         sodipodi:nodetypes="aaaa" />
      <path
         sodipodi:nodetypes="aaaa"
         inkscape:connector-curvature="0"
         id="path4683"
         d="m -1695.6068,487.11558 c 0.8289,-1.41211 3.9212,-1.40289 4.9113,-0.0987 1.2543,1.65203 0.2719,5.7549 -1.7922,5.95884 -2.2021,0.21753 -4.2393,-3.95177 -3.1191,-5.86011 z"
         style="fill:#b56e40;fill-opacity:1;stroke:none;stroke-width:0.09343963px;stroke-linecap:butt;stroke-linejoin:miter;stroke-opacity:1" />
      <path
         sodipodi:nodetypes="aaaa"
         inkscape:connector-curvature="0"
         id="path4685"
         d="m -1642.7489,475.08911 c 2.111,0.10909 3.9409,3.65689 3.0365,5.56743 -1.146,2.42001 -6.4307,3.73675 -7.8929,1.49363 -1.5599,-2.39294 2.0036,-7.20826 4.8564,-7.06107 z"
         style="fill:#9c5f37;fill-opacity:1;stroke:none;stroke-width:0.12062502px;stroke-linecap:butt;stroke-linejoin:miter;stroke-opacity:1" />
      <path
         style="fill:#b56e40;fill-opacity:1;stroke:none;stroke-width:0.12062502px;stroke-linecap:butt;stroke-linejoin:miter;stroke-opacity:1"
         d="m -1642.5019,475.67688 c 2.111,0.10909 3.941,3.65684 3.0363,5.5673 -1.1458,2.42016 -6.4305,3.73688 -7.8926,1.49378 -1.56,-2.39309 2.0035,-7.20841 4.8563,-7.06107 z"
         id="path4687"
         inkscape:connector-curvature="0"
         sodipodi:nodetypes="aaaa" />
      <path
         style="fill:#9c5f37;fill-opacity:1;stroke:none;stroke-width:0.12062502px;stroke-linecap:butt;stroke-linejoin:miter;stroke-opacity:1"
         d="m -1567.3094,482.88794 c 1.3971,1.58629 0.1379,5.37443 -1.8607,6.06254 -2.5319,0.87131 -7.1667,-1.98888 -6.5839,-4.6023 0.6217,-2.78799 6.5564,-3.6038 8.4446,-1.46025 z"
         id="path4689"
         inkscape:connector-curvature="0"
         sodipodi:nodetypes="aaaa" />
      <path
         sodipodi:nodetypes="aaaa"
         inkscape:connector-curvature="0"
         id="path4691"
         d="m -1567.6108,483.47272 c 1.3971,1.58629 0.1381,5.37446 -1.8607,6.06231 -2.5319,0.87155 -7.1666,-1.98865 -6.5838,-4.60198 0.6218,-2.78818 6.5564,-3.60398 8.4445,-1.46033 z"
         style="fill:#b56e40;fill-opacity:1;stroke:none;stroke-width:0.12062502px;stroke-linecap:butt;stroke-linejoin:miter;stroke-opacity:1" />
      <path
         sodipodi:nodetypes="aaaa"
         inkscape:connector-curvature="0"
         id="path4693"
         d="m -1601.2676,488.91161 c 1.8269,2.07421 0.1803,7.02752 -2.433,7.92728 -3.3107,1.13931 -9.371,-2.60063 -8.609,-6.01789 0.8129,-3.64553 8.573,-4.71227 11.042,-1.9094 z"
         style="fill:#9c5f37;fill-opacity:1;stroke:none;stroke-width:0.15772727px;stroke-linecap:butt;stroke-linejoin:miter;stroke-opacity:1" />
      <path
         style="fill:#b56e40;fill-opacity:1;stroke:none;stroke-width:0.15772727px;stroke-linecap:butt;stroke-linejoin:miter;stroke-opacity:1"
         d="m -1601.6617,489.51647 c 1.8268,2.07421 0.1806,7.02756 -2.433,7.92698 -3.3107,1.13962 -9.3709,-2.60033 -8.6089,-6.01747 0.8131,-3.64578 8.5731,-4.71251 11.0419,-1.90951 z"
         id="path4695"
         inkscape:connector-curvature="0"
         sodipodi:nodetypes="aaaa" />
      <path
         style="fill:#9c5f37;fill-opacity:1;stroke:none;stroke-width:0.15772727px;stroke-linecap:butt;stroke-linejoin:miter;stroke-opacity:1"
         d="m -1539.9904,483.80893 c -1.8269,2.07421 -0.1803,7.02752 2.433,7.92728 3.3107,1.13931 9.371,-2.60063 8.609,-6.01789 -0.8129,-3.64553 -8.573,-4.71227 -11.042,-1.9094 z"
         id="path4697"
         inkscape:connector-curvature="0"
         sodipodi:nodetypes="aaaa" />
      <path
         sodipodi:nodetypes="aaaa"
         inkscape:connector-curvature="0"
         id="path4699"
         d="m -1539.5963,484.31929 c -1.8268,2.07421 -0.1806,7.02756 2.433,7.92698 3.3107,1.13962 9.3709,-2.60033 8.6089,-6.01747 -0.8131,-3.64578 -8.5731,-4.71251 -11.0419,-1.90951 z"
         style="fill:#b56e40;fill-opacity:1;stroke:none;stroke-width:0.15772727px;stroke-linecap:butt;stroke-linejoin:miter;stroke-opacity:1" />
      <path
         sodipodi:nodetypes="aaaaa"
         inkscape:connector-curvature="0"
         id="path4701"
         d="m -1744.9136,489.94896 c -0.2447,-3.42996 4.0178,-5.25658 6.6397,-5.61429 4.0497,-0.55249 11.6616,0.40627 11.4048,5.71638 -0.2417,4.99937 -7.3476,3.9438 -11.1705,3.57273 -2.4688,-0.23965 -6.6442,-0.45364 -6.874,-3.67482 z"
         style="fill:#9c5f37;fill-opacity:1;stroke:none;stroke-width:0.17679721px;stroke-linecap:butt;stroke-linejoin:miter;stroke-opacity:1" />
      <path
         style="fill:#b56e40;fill-opacity:1;stroke:none;stroke-width:0.17679721px;stroke-linecap:butt;stroke-linejoin:miter;stroke-opacity:1"
         d="m -1744.9136,490.8412 c -0.2447,-3.42996 4.0178,-5.25657 6.6397,-5.61429 4.0497,-0.55249 11.6616,0.40627 11.4048,5.71638 -0.2417,4.99937 -7.3476,3.94381 -11.1705,3.57274 -2.4688,-0.23966 -6.6442,-0.45365 -6.874,-3.67483 z"
         id="path4703"
         inkscape:connector-curvature="0"
         sodipodi:nodetypes="aaaaa" />
      <path
         style="fill:#9c5f37;fill-opacity:1;stroke:none;stroke-width:0.14235564px;stroke-linecap:butt;stroke-linejoin:miter;stroke-opacity:1"
         d="m -1670.9992,486.05968 c 1.4436,-2.36264 5.0917,-1.56659 6.9777,-0.57489 2.9127,1.53165 7.4537,5.71982 4.8021,9.08031 -2.4963,3.16391 -6.6604,-0.85104 -8.9927,-2.88206 -1.5061,-1.31159 -4.1428,-3.40447 -2.7871,-5.62336 z"
         id="path4705"
         inkscape:connector-curvature="0"
         sodipodi:nodetypes="aaaaa" />
      <path
         sodipodi:nodetypes="aaaaa"
         inkscape:connector-curvature="0"
         id="path4707"
         d="m -1671.4165,486.64452 c 1.4437,-2.36265 5.0918,-1.56659 6.9777,-0.5749 2.9127,1.53166 7.4538,5.71982 4.8022,9.08032 -2.4964,3.1639 -6.6604,-0.85104 -8.9927,-2.88206 -1.5061,-1.31159 -4.1429,-3.40448 -2.7872,-5.62336 z"
         style="fill:#b56e40;fill-opacity:1;stroke:none;stroke-width:0.14235564px;stroke-linecap:butt;stroke-linejoin:miter;stroke-opacity:1" />
      <path
         sodipodi:nodetypes="aaaaa"
         inkscape:connector-curvature="0"
         id="path4709"
         d="m -1587.9639,480.79048 c -0.6685,-1.71248 -3.1459,-1.61697 -4.4942,-1.18837 -2.0823,0.66201 -5.5383,2.87087 -4.1964,5.37629 1.2633,2.35886 4.4528,0.21934 6.2138,-0.83668 1.1373,-0.68195 3.1046,-1.74294 2.4768,-3.35124 z"
         style="fill:#9c5f37;fill-opacity:1;stroke:none;stroke-width:0.09451845px;stroke-linecap:butt;stroke-linejoin:miter;stroke-opacity:1" />
      <path
         style="fill:#b56e40;fill-opacity:1;stroke:none;stroke-width:0.09451845px;stroke-linecap:butt;stroke-linejoin:miter;stroke-opacity:1"
         d="m -1587.7593,481.22137 c -0.6685,-1.71251 -3.1459,-1.61698 -4.4941,-1.18838 -2.0823,0.66202 -5.5384,2.87086 -4.1965,5.37628 1.2634,2.35888 4.4528,0.21934 6.2138,-0.83668 1.1373,-0.68195 3.1047,-1.74293 2.4768,-3.35122 z"
         id="path4711"
         inkscape:connector-curvature="0"
         sodipodi:nodetypes="aaaaa" />
      <path
         style="fill:#9c5f37;fill-opacity:1;stroke:none;stroke-width:0.07199591px;stroke-linecap:butt;stroke-linejoin:miter;stroke-opacity:1"
         d="m -1549.852,478.94322 c -0.5092,1.30441 -2.3963,1.23166 -3.4233,0.90519 -1.5861,-0.50426 -4.2186,-2.18678 -3.1965,-4.09519 0.9623,-1.79677 3.3918,-0.16707 4.7332,0.63731 0.8663,0.51945 2.3648,1.32762 1.8866,2.55269 z"
         id="path4713"
         inkscape:connector-curvature="0"
         sodipodi:nodetypes="aaaaa" />
      <path
         sodipodi:nodetypes="aaaaa"
         inkscape:connector-curvature="0"
         id="path4715"
         d="m -1549.6962,478.615 c -0.5092,1.30444 -2.3962,1.23168 -3.4232,0.90521 -1.5861,-0.50427 -4.2187,-2.18678 -3.1965,-4.09519 0.9623,-1.79678 3.3917,-0.16707 4.7331,0.63731 0.8663,0.51945 2.3649,1.32762 1.8866,2.55267 z"
         style="fill:#b56e40;fill-opacity:1;stroke:none;stroke-width:0.07199591px;stroke-linecap:butt;stroke-linejoin:miter;stroke-opacity:1" />
      <path
         sodipodi:nodetypes="aaaaa"
         inkscape:connector-curvature="0"
         id="path4717"
         d="m -1544.3713,491.21658 c -0.5092,-1.30441 -2.3963,-1.23166 -3.4233,-0.90519 -1.5861,0.50426 -4.2186,2.18678 -3.1965,4.09519 0.9623,1.79677 3.3918,0.16707 4.7332,-0.63731 0.8663,-0.51945 2.3648,-1.32762 1.8866,-2.55269 z"
         style="fill:#9c5f37;fill-opacity:1;stroke:none;stroke-width:0.07199591px;stroke-linecap:butt;stroke-linejoin:miter;stroke-opacity:1" />
      <path
         style="fill:#b56e40;fill-opacity:1;stroke:none;stroke-width:0.07199591px;stroke-linecap:butt;stroke-linejoin:miter;stroke-opacity:1"
         d="m -1544.2155,491.5448 c -0.5092,-1.30444 -2.3962,-1.23168 -3.4232,-0.90521 -1.5861,0.50427 -4.2187,2.18678 -3.1965,4.09519 0.9623,1.79678 3.3917,0.16707 4.7331,-0.63731 0.8663,-0.51945 2.3649,-1.32762 1.8866,-2.55267 z"
         id="path4719"
         inkscape:connector-curvature="0"
         sodipodi:nodetypes="aaaaa" />
      <path
         sodipodi:nodetypes="aaaa"
         inkscape:connector-curvature="0"
         id="path4721"
         d="m -1725.6597,477.90592 c -0.4326,-1.57922 1.7324,-3.78717 3.3574,-3.58601 2.0584,0.25491 4.3109,3.82217 3.0162,5.44263 -1.3811,1.72876 -5.7888,0.27751 -6.3736,-1.85665 z"
         style="fill:#9c5f37;fill-opacity:1;stroke:none;stroke-width:0.09343963px;stroke-linecap:butt;stroke-linejoin:miter;stroke-opacity:1" />
      <path
         style="fill:#b56e40;fill-opacity:1;stroke:none;stroke-width:0.09343963px;stroke-linecap:butt;stroke-linejoin:miter;stroke-opacity:1"
         d="m -1725.6368,478.39056 c -0.4327,-1.57922 1.7323,-3.78721 3.3573,-3.58593 2.0586,0.25487 4.311,3.82213 3.0163,5.4426 -1.3813,1.72878 -5.7889,0.27753 -6.3736,-1.85665 z"
         id="path4723"
         inkscape:connector-curvature="0"
         sodipodi:nodetypes="aaaa" />
      <path
         id="path4792"
         transform="scale(0.26458333)"
         d="m -6066.3926,1731.8633 c -12.819,-0.2346 -27.898,2.9697 -33.6074,13.5137 -1.3865,2.5608 0.2305,7.1331 1.7129,10.3418 a 15.288536,41.828404 68.347037 0 0 26.3867,-5.0196 15.288536,41.828404 68.347037 0 0 25.9824,-13.2246 c -4.3302,-3.0925 -10.0805,-4.8289 -15.1543,-5.3125 -1.7051,-0.1625 -3.489,-0.2653 -5.3203,-0.2988 z"
         style="fill:#917c6f;fill-opacity:1;stroke:none;stroke-width:1.30521333"
         inkscape:connector-curvature="0" />
      <path
         id="path4818"
         transform="scale(0.26458333)"
         d="m -6861.957,1383.9434 c -24.712,0.3344 -37.382,16.4501 -44.5977,40.4785 a 22.172191,28.922412 0 0 0 10.1836,3.2402 22.172191,28.922412 0 0 0 14.5215,-7.1152 22.172191,28.922412 0 0 0 14.5391,7.1152 22.172191,28.922412 0 0 0 14.916,-7.5664 22.172191,28.922412 0 0 0 14.9101,7.5664 22.172191,28.922412 0 0 0 11.8867,-4.5469 c -6.1795,-23.1859 -16.3057,-38.8141 -34.4023,-39.166 -0.6604,-0.013 -1.3131,-0.015 -1.957,-0.01 z"
         style="fill:#61ecd0;fill-opacity:1;stroke:none;stroke-width:1.2228713"
         inkscape:connector-curvature="0" />
      <path
         id="ellipse4824"
         transform="scale(0.26458333)"
         d="m -6690.8379,1460.9492 c -1.1265,0.012 -2.275,0.06 -3.4473,0.1426 -15.8017,1.1187 -24.1746,16.9884 -29.6308,38.5293 a 22.172191,28.922412 0 0 0 5.4004,0.8984 22.172191,28.922412 0 0 0 18.9355,-13.9414 13.333356,28.922412 0 0 0 11.3887,13.9414 13.333356,28.922412 0 0 0 10.7285,-11.7988 22.172191,28.922412 0 0 0 17.8359,11.7988 22.172191,28.922412 0 0 0 14.3028,-6.8261 c -9.8767,-19.6739 -23.3227,-32.9856 -45.5137,-32.7442 z"
         style="fill:#61ecd0;fill-opacity:1;stroke:none;stroke-width:1.2228713"
         inkscape:connector-curvature="0" />
      <path
         id="ellipse4834"
         transform="scale(0.26458333)"
         d="m -6267.1934,1393.8379 c -1.3751,-0 -2.787,0.031 -4.2363,0.1094 -3.7715,0.2094 -7.2649,0.7702 -10.5098,1.6465 a 16.470063,28.922413 0 0 0 -0.1074,0.3027 27.388256,28.922413 0 0 0 -0.1504,-0.2363 c -18.3742,5.0779 -28.617,20.4939 -34.9375,41.3437 a 27.388256,28.922413 0 0 0 11.6934,2.8008 27.388256,28.922413 0 0 0 23.3867,-13.9414 16.470063,28.922413 0 0 0 14.0703,13.9414 16.470063,28.922413 0 0 0 13.25,-11.8008 27.388256,28.922413 0 0 0 22.0332,11.8008 27.388256,28.922413 0 0 0 13.9922,-4.0996 c -7.8471,-25.0264 -20.7235,-41.7788 -48.4844,-41.8672 z"
         style="fill:#61ecd0;fill-opacity:1;stroke:none;stroke-width:1.35912263"
         inkscape:connector-curvature="0" />
      <path
         id="ellipse4844"
         transform="scale(0.26458333)"
         d="m -5855.7129,1469.6621 c -18.387,-0.3534 -30.3871,8.8499 -39.4141,23.0078 a 22.172191,16.779556 0 0 0 12.3262,2.8477 22.172191,16.779556 0 0 0 18.9336,-8.0879 13.333356,16.779556 0 0 0 11.3906,8.0879 13.333356,16.779556 0 0 0 10.7266,-6.8438 22.172191,16.779556 0 0 0 17.8379,6.8438 22.172191,16.779556 0 0 0 7.9648,-1.1387 c -7.883,-14.5313 -19.4605,-24.3265 -39.7656,-24.7168 z"
         style="fill:#61ecd0;fill-opacity:1;stroke:none;stroke-width:0.93143749"
         inkscape:connector-curvature="0" />
      <path
         inkscape:connector-curvature="0"
         id="path4858"
         d="m -1804.827,321.58858 a 14.629032,17.15128 0 0 0 -13.8018,11.52506 12.779385,7.8189659 0 0 0 -6.0396,-0.93146 12.779385,7.8189659 0 0 0 -12.7794,7.81908 12.779385,7.8189659 0 0 0 0.2909,1.61517 17.571654,7.8189659 0 0 0 -7.4949,5.3628 h 79.0509 a 10.004913,6.7259921 0 0 0 0.1213,-1.00883 10.004913,6.7259921 0 0 0 -10.0052,-6.72602 10.004913,6.7259921 0 0 0 -2.2814,0.18565 14.629032,10.425288 0 0 0 -13.189,-6.06799 14.629032,17.15128 0 0 0 -13.8718,-11.77346 z"
         style="fill:#ffffff;fill-opacity:1;stroke:none;stroke-width:0.20538658" />
      <path
         style="fill:#ffffff;fill-opacity:1;stroke:none;stroke-width:0.08003017"
         d="m -1710.0713,351.07072 a 5.7002941,6.6831039 0 0 0 -5.378,4.49082 4.9795676,3.0467091 0 0 0 -2.3533,-0.36295 4.9795676,3.0467091 0 0 0 -4.9796,3.04675 4.9795676,3.0467091 0 0 0 0.1133,0.62936 6.8469053,3.0467091 0 0 0 -2.9204,2.08965 h 30.8027 a 3.8984771,2.620825 0 0 0 0.047,-0.3931 3.8984771,2.620825 0 0 0 -3.8985,-2.62083 3.8984771,2.620825 0 0 0 -0.889,0.0723 5.7002941,4.0622789 0 0 0 -5.1392,-2.36443 5.7002941,6.6831039 0 0 0 -5.4052,-4.58761 z"
         id="path4872"
         inkscape:connector-curvature="0" />
      <path
         inkscape:connector-curvature="0"
         id="path4874"
         d="m -1618.236,329.8974 a 10.277382,12.049346 0 0 0 -9.6964,8.09674 8.9779439,5.4930841 0 0 0 -4.2428,-0.65437 8.9779439,5.4930841 0 0 0 -8.9781,5.49315 8.9779439,5.4930841 0 0 0 0.2043,1.13472 12.344672,5.4930841 0 0 0 -5.2653,3.76754 h 55.536 a 7.0287847,4.7252335 0 0 0 0.084,-0.70874 7.0287847,4.7252335 0 0 0 -7.0288,-4.72525 7.0287847,4.7252335 0 0 0 -1.6028,0.13036 10.277382,7.3241122 0 0 0 -9.2658,-4.26296 10.277382,12.049346 0 0 0 -9.7454,-8.27127 z"
         style="fill:#ffffff;fill-opacity:1;stroke:none;stroke-width:0.14429092" />
      <path
         style="fill:#ffffff;fill-opacity:1;stroke:none;stroke-width:0.0556246"
         d="m -1556.0536,355.22176 a 3.9619627,4.6450603 0 0 0 -3.738,3.12132 3.4610253,2.117601 0 0 0 -1.6356,-0.25226 3.4610253,2.117601 0 0 0 -3.4611,2.11762 3.4610253,2.117601 0 0 0 0.079,0.43744 4.7589094,2.117601 0 0 0 -2.0298,1.4524 h 21.4093 a 2.7096183,1.8215922 0 0 0 0.032,-0.27322 2.7096183,1.8215922 0 0 0 -2.7096,-1.8216 2.7096183,1.8215922 0 0 0 -0.6179,0.0503 3.9619627,2.823468 0 0 0 -3.572,-1.64338 3.9619627,4.6450603 0 0 0 -3.7569,-3.1886 z"
         id="path4876"
         inkscape:connector-curvature="0" />
      <path
         inkscape:connector-curvature="0"
         id="path4878"
         d="m -1546.3592,318.28782 a 7.3842762,8.6574284 0 0 0 -6.9668,5.8175 6.4506329,3.9467688 0 0 0 -3.0484,-0.47016 6.4506329,3.9467688 0 0 0 -6.4508,3.9468 6.4506329,3.9467688 0 0 0 0.1472,0.8153 8.8696195,3.9467688 0 0 0 -3.7831,2.70697 h 39.9025 a 5.0501662,3.3950698 0 0 0 0.06,-0.50923 5.0501662,3.3950698 0 0 0 -5.0501,-3.39508 5.0501662,3.3950698 0 0 0 -1.1516,0.0937 7.3842762,5.2623584 0 0 0 -6.6575,-3.06292 7.3842762,8.6574284 0 0 0 -7.0021,-5.94289 z"
         style="fill:#ffffff;fill-opacity:1;stroke:none;stroke-width:0.10367271" />
      <path
         style="fill:#ffffff;fill-opacity:1;stroke:none;stroke-width:0.03946585"
         d="m -1769.7195,365.15686 a 2.8110262,3.2956863 0 0 0 -2.6521,2.21459 2.4556094,1.5024452 0 0 0 -1.1604,-0.17898 2.4556094,1.5024452 0 0 0 -2.4557,1.50246 2.4556094,1.5024452 0 0 0 0.056,0.31037 3.3764627,1.5024452 0 0 0 -1.4401,1.03048 h 15.19 a 1.9224836,1.292426 0 0 0 0.023,-0.19385 1.9224836,1.292426 0 0 0 -1.9224,-1.29243 1.9224836,1.292426 0 0 0 -0.4384,0.0357 2.8110262,2.0032603 0 0 0 -2.5344,-1.16599 2.8110262,3.2956863 0 0 0 -2.6655,-2.26232 z"
         id="path4880"
         inkscape:connector-curvature="0" />
    </g>
  </g>
</svg>
